<svg width="36" height="36" viewBox="0 0 36 36" fill="none" xmlns="http://www.w3.org/2000/svg">
<circle cx="18" cy="18" r="18" fill="#F5F5F5"/>
<g clip-path="url(#clip0_0_794)">
<path d="M24.6543 12.1508C24.2854 12.0429 15.2623 11.1445 12.0935 15.4257C10.69 17.3222 10.669 19.9221 12.0232 23.1525C11.6796 23.8655 11.3789 24.6166 11.1338 25.4091C11.0593 25.6499 11.1941 25.9052 11.4346 25.9795C11.4795 25.9934 11.5249 26 11.5697 26C11.7642 26 11.9448 25.8744 12.005 25.6787C14.4202 17.8703 22.2692 14.0927 24.6761 13.1383C24.9104 13.0454 25.2234 12.3174 24.6543 12.1508Z" fill="#84829A"/>
<path d="M13.4717 24.1297C14.7781 24.6777 16.0843 24.9586 17.299 24.9586C18.3908 24.9586 19.409 24.7341 20.2864 24.2789C22.0522 23.3629 23.1313 21.6107 23.4068 19.2112C23.6876 16.7658 24.0371 15.2341 24.3286 14.297C21.7333 15.4942 16.1685 18.5973 13.4717 24.1297Z" fill="#84829A"/>
</g>
<defs>
<clipPath id="clip0_0_794">
<rect width="14" height="14" fill="white" transform="translate(11 12)"/>
</clipPath>
</defs>
</svg>
