<svg width="36" height="36" viewBox="0 0 36 36" fill="none" xmlns="http://www.w3.org/2000/svg">
<circle cx="18" cy="18" r="18" fill="#F5F5F5"/>
<path d="M23.3434 13.2421L17.0259 19.583C16.9535 19.541 16.8773 19.5059 16.7984 19.478L12.6276 18.0663C12.5014 18.0347 12.3895 17.9619 12.3095 17.8593C12.2295 17.7568 12.186 17.6305 12.186 17.5005C12.186 17.3704 12.2295 17.2441 12.3095 17.1416C12.3895 17.0391 12.5014 16.9663 12.6276 16.9346L22.9759 13.2538C23.0435 13.2308 23.1145 13.219 23.1859 13.2188C23.2393 13.218 23.2925 13.2258 23.3434 13.2421Z" fill="#84829A"/>
<path d="M23.7461 14.0238L20.0653 24.3838C20.0247 24.5045 19.9457 24.6086 19.8404 24.6803C19.735 24.7519 19.6091 24.7871 19.4819 24.7804C19.3533 24.7863 19.2263 24.7494 19.1207 24.6756C19.0152 24.6017 18.9371 24.495 18.8986 24.3721L17.5103 20.2013C17.4824 20.1223 17.4472 20.0462 17.4053 19.9738L23.7578 13.6562C23.7936 13.7768 23.7895 13.9057 23.7461 14.0238Z" fill="#84829A"/>
</svg>
