<svg width="166" height="153" viewBox="0 0 166 153" fill="none" xmlns="http://www.w3.org/2000/svg">
<path d="M12.6104 11.5586L14.4795 11.5586L14.4795 0.83789L12.6104 0.83789L12.6104 11.5586ZM8.04492 7.19727L19.4316 7.19726L19.4316 5.20996L8.04492 5.20996L8.04492 7.19727Z" fill="#FF7152"/>
<path d="M47.6104 11.5586L49.4795 11.5586L49.4795 0.83789L47.6104 0.83789L47.6104 11.5586ZM43.0449 7.19727L54.4316 7.19726L54.4316 5.20996L43.0449 5.20996L43.0449 7.19727Z" fill="#E5E5E5"/>
<path d="M82.6104 11.5586L84.4795 11.5586L84.4795 0.83789L82.6104 0.83789L82.6104 11.5586ZM78.0449 7.19727L89.4316 7.19726L89.4316 5.20996L78.0449 5.20996L78.0449 7.19727Z" fill="#E5E5E5"/>
<path d="M12.6104 46.5586L14.4795 46.5586L14.4795 35.8379L12.6104 35.8379L12.6104 46.5586ZM8.04492 42.1973L19.4316 42.1973L19.4316 40.21L8.04492 40.21L8.04492 42.1973Z" fill="#E5E5E5"/>
<path d="M47.6104 46.5586L49.4795 46.5586L49.4795 35.8379L47.6104 35.8379L47.6104 46.5586ZM43.0449 42.1973L54.4316 42.1973L54.4316 40.21L43.0449 40.21L43.0449 42.1973Z" fill="#E5E5E5"/>
<path d="M82.6104 46.5586L84.4795 46.5586L84.4795 35.8379L82.6104 35.8379L82.6104 46.5586ZM78.0449 42.1973L89.4316 42.1973L89.4316 40.21L78.0449 40.21L78.0449 42.1973Z" fill="#E5E5E5"/>
<path d="M117.61 46.5586L119.479 46.5586L119.479 35.8379L117.61 35.8379L117.61 46.5586ZM113.045 42.1973L124.432 42.1973L124.432 40.21L113.045 40.21L113.045 42.1973Z" fill="#E5E5E5"/>
<path d="M12.6104 81.5586L14.4795 81.5586L14.4795 70.8379L12.6104 70.8379L12.6104 81.5586ZM8.04492 77.1973L19.4316 77.1973L19.4316 75.21L8.04492 75.21L8.04492 77.1973Z" fill="#E5E5E5"/>
<path d="M47.6104 81.5586L49.4795 81.5586L49.4795 70.8379L47.6104 70.8379L47.6104 81.5586ZM43.0449 77.1973L54.4316 77.1973L54.4316 75.21L43.0449 75.21L43.0449 77.1973Z" fill="#E5E5E5"/>
<path d="M82.6104 81.5586L84.4795 81.5586L84.4795 70.8379L82.6104 70.8379L82.6104 81.5586ZM78.0449 77.1973L89.4316 77.1973L89.4316 75.21L78.0449 75.21L78.0449 77.1973Z" fill="#6246E5"/>
<path d="M117.61 81.5586L119.479 81.5586L119.479 70.8379L117.61 70.8379L117.61 81.5586ZM113.045 77.1973L124.432 77.1973L124.432 75.21L113.045 75.21L113.045 77.1973Z" fill="#E5E5E5"/>
<path d="M152.61 81.5586L154.479 81.5586L154.479 70.8379L152.61 70.8379L152.61 81.5586ZM148.045 77.1973L159.432 77.1973L159.432 75.21L148.045 75.21L148.045 77.1973Z" fill="#E5E5E5"/>
<path d="M12.6104 116.559L14.4795 116.559L14.4795 105.838L12.6104 105.838L12.6104 116.559ZM8.04492 112.197L19.4316 112.197L19.4316 110.21L8.04492 110.21L8.04492 112.197Z" fill="#E5E5E5"/>
<path d="M47.6104 116.559L49.4795 116.559L49.4795 105.838L47.6104 105.838L47.6104 116.559ZM43.0449 112.197L54.4316 112.197L54.4316 110.21L43.0449 110.21L43.0449 112.197Z" fill="#E5E5E5"/>
<path d="M82.6104 116.559L84.4795 116.559L84.4795 105.838L82.6104 105.838L82.6104 116.559ZM78.0449 112.197L89.4316 112.197L89.4316 110.21L78.0449 110.21L78.0449 112.197Z" fill="#E5E5E5"/>
<path d="M117.61 116.559L119.479 116.559L119.479 105.838L117.61 105.838L117.61 116.559ZM113.045 112.197L124.432 112.197L124.432 110.21L113.045 110.21L113.045 112.197Z" fill="#DF6951"/>
<path d="M152.61 116.559L154.479 116.559L154.479 105.838L152.61 105.838L152.61 116.559ZM148.045 112.197L159.432 112.197L159.432 110.21L148.045 110.21L148.045 112.197Z" fill="#E5E5E5"/>
<path d="M12.6104 151.559L14.4795 151.559L14.4795 140.838L12.6104 140.838L12.6104 151.559ZM8.04492 147.197L19.4316 147.197L19.4316 145.21L8.04492 145.21L8.04492 147.197Z" fill="#E5E5E5"/>
<path d="M47.6104 151.559L49.4795 151.559L49.4795 140.838L47.6104 140.838L47.6104 151.559ZM43.0449 147.197L54.4316 147.197L54.4316 145.21L43.0449 145.21L43.0449 147.197Z" fill="#E5E5E5"/>
<path d="M82.6104 151.559L84.4795 151.559L84.4795 140.838L82.6104 140.838L82.6104 151.559ZM78.0449 147.197L89.4316 147.197L89.4316 145.21L78.0449 145.21L78.0449 147.197Z" fill="#DF6951"/>
<path d="M117.61 151.559L119.479 151.559L119.479 140.838L117.61 140.838L117.61 151.559ZM113.045 147.197L124.432 147.197L124.432 145.21L113.045 145.21L113.045 147.197Z" fill="#E5E5E5"/>
<path d="M152.61 151.559L154.479 151.559L154.479 140.838L152.61 140.838L152.61 151.559ZM148.045 147.197L159.432 147.197L159.432 145.21L148.045 145.21L148.045 147.197Z" fill="#E5E5E5"/>
</svg>
